<svg xmlns="http://www.w3.org/2000/svg" width="35" height="21.224" viewBox="0 0 35 21.224">
  <g id="eye" transform="translate(0 -96.417)">
    <g id="Group_31" data-name="Group 31" transform="translate(0 96.417)">
      <g id="Group_30" data-name="Group 30" transform="translate(0 0)">
        <path id="Path_15" data-name="Path 15" d="M34.716,106.218c-5.286-6.5-10.994-9.8-16.981-9.8a17.8,17.8,0,0,0-7.144,1.564A25.021,25.021,0,0,0,5.1,101.361a28.643,28.643,0,0,0-4.851,4.908,1.3,1.3,0,0,0,.036,1.572c5.279,6.508,10.994,9.8,16.981,9.8a17.8,17.8,0,0,0,7.144-1.564A25.022,25.022,0,0,0,29.9,112.7a28.643,28.643,0,0,0,4.851-4.908A1.3,1.3,0,0,0,34.716,106.218Zm-6.479,4.515c-2.486,1.979-6.4,4.336-10.973,4.336-4.936,0-9.751-2.708-14.323-8.051a28.264,28.264,0,0,1,3.815-3.686C9.242,101.353,13.156,99,17.728,99c4.936,0,9.751,2.708,14.323,8.051A27.832,27.832,0,0,1,28.237,110.733Z" transform="translate(0 -96.417)" fill="#14153f"/>
      </g>
    </g>
    <g id="Group_33" data-name="Group 33" transform="translate(11.463 101.003)">
      <g id="Group_32" data-name="Group 32" transform="translate(0 0)">
        <path id="Path_16" data-name="Path 16" d="M171.24,165.361a1.29,1.29,0,0,0-1.286,1.286,3.458,3.458,0,1,1-3.458-3.458,1.286,1.286,0,0,0,0-2.572,6.029,6.029,0,1,0,6.029,6.029A1.29,1.29,0,0,0,171.24,165.361Z" transform="translate(-160.467 -160.617)" fill="#14153f"/>
      </g>
    </g>
  </g>
</svg>
